Lexend Deca Light.ufo
<glyph name="one" format="2">
  <advance width="419"/>
  <unicode hex="0031"/>
  <outline>
    <contour>
      <point x="248.0" y="20.0" type="line"/>
      <point x="198.0" y="20.0" type="line"/>
      <point x="198.0" y="657.0" type="line"/>
      <point x="220.0" y="642.0" type="line"/>
      <point x="109.0" y="567.0" type="line"/>
      <point x="80.0" y="607.0" type="line"/>
      <point x="240.0" y="710.0" type="line"/>
      <point x="248.0" y="710.0" type="line"/>
    </contour>
    <contour>
      <point x="346.0" y="50.0" type="line"/>
      <point x="346.0" y="0.0" type="line"/>
      <point x="103.0" y="0.0" type="line"/>
      <point x="103.0" y="50.0" type="line"/>
    </contour>
  </outline>
</glyph>
<glyph name="colon" format="2">
  <advance width="228"/>
  <unicode hex="003A"/>
  <note>
colon
</note>
  <outline>
    <contour>
      <point x="158.0" y="481.0" type="qcurve" smooth="yes"/>
      <point x="158.0" y="459.0"/>
      <point x="134.0" y="431.0"/>
      <point x="114.0" y="431.0" type="qcurve" smooth="yes"/>
      <point x="93.0" y="431.0"/>
      <point x="70.0" y="457.0"/>
      <point x="70.0" y="481.0" type="qcurve" smooth="yes"/>
      <point x="70.0" y="503.0"/>
      <point x="94.0" y="531.0"/>
      <point x="114.0" y="531.0" type="qcurve" smooth="yes"/>
      <point x="135.0" y="531.0"/>
      <point x="158.0" y="505.0"/>
    </contour>
    <contour>
      <point x="158.0" y="40.0" type="qcurve" smooth="yes"/>
      <point x="158.0" y="18.0"/>
      <point x="134.0" y="-10.0"/>
      <point x="114.0" y="-10.0" type="qcurve" smooth="yes"/>
      <point x="93.0" y="-10.0"/>
      <point x="70.0" y="16.0"/>
      <point x="70.0" y="40.0" type="qcurve" smooth="yes"/>
      <point x="70.0" y="62.0"/>
      <point x="94.0" y="90.0"/>
      <point x="114.0" y="90.0" type="qcurve" smooth="yes"/>
      <point x="135.0" y="90.0"/>
      <point x="158.0" y="64.0"/>
    </contour>
  </outline>
</glyph>
<glyph name="semicolon" format="2">
  <advance width="231"/>
  <unicode hex="003B"/>
  <note>
semicolon
</note>
  <outline>
    <contour>
      <point x="161.0" y="481.0" type="qcurve" smooth="yes"/>
      <point x="161.0" y="459.0"/>
      <point x="137.0" y="431.0"/>
      <point x="117.0" y="431.0" type="qcurve" smooth="yes"/>
      <point x="96.0" y="431.0"/>
      <point x="73.0" y="457.0"/>
      <point x="73.0" y="481.0" type="qcurve" smooth="yes"/>
      <point x="73.0" y="503.0"/>
      <point x="97.0" y="531.0"/>
      <point x="117.0" y="531.0" type="qcurve" smooth="yes"/>
      <point x="138.0" y="531.0"/>
      <point x="161.0" y="505.0"/>
    </contour>
    <component base="comma" xOffset="-20"/>
  </outline>
</glyph>
<glyph name="question" format="2">
  <advance width="498"/>
  <unicode hex="003F"/>
  <note>
question
</note>
  <outline>
    <contour>
      <point x="215.0" y="201.0" type="line"/>
      <point x="202.0" y="327.0" type="line"/>
      <point x="300.968002164972" y="351.9919197386293"/>
      <point x="395.0" y="445.35675675675674"/>
      <point x="395.0" y="511.0" type="qcurve" smooth="yes"/>
      <point x="395.0" y="572.0"/>
      <point x="311.0" y="653.0"/>
      <point x="246.0" y="653.0" type="qcurve" smooth="yes"/>
      <point x="197.0" y="653.0"/>
      <point x="107.0" y="599.0"/>
      <point x="71.0" y="542.0" type="qcurve"/>
      <point x="35.0" y="573.0" type="line"/>
      <point x="76.0" y="635.0"/>
      <point x="187.0" y="703.0"/>
      <point x="248.0" y="703.0" type="qcurve" smooth="yes"/>
      <point x="333.0" y="703.0"/>
      <point x="448.0" y="592.0"/>
      <point x="448.0" y="511.0" type="qcurve" smooth="yes"/>
      <point x="448.0" y="439.348623853211"/>
      <point x="329.06509053083005" y="317.01923129319977"/>
      <point x="241.0" y="291.0" type="qcurve"/>
      <point x="264.0" y="324.0" type="line"/>
      <point x="254.0" y="201.0" type="line"/>
    </contour>
    <component base="period" xOffset="120"/>
  </outline>
</glyph>
<glyph name="C" format="2">
  <advance width="674"/>
  <unicode hex="0043"/>
  <note>
C
</note>
  <anchor x="374.0" y="0" name="bottom"/>
  <anchor x="369.0" y="700.0" name="top"/>
  <outline>
    <contour>
      <point x="605.0" y="130.0" type="qcurve"/>
      <point x="632.0" y="86.0" type="line"/>
      <point x="596.0" y="44.0"/>
      <point x="467.0" y="-10.0"/>
      <point x="403.0" y="-10.0" type="qcurve" smooth="yes"/>
      <point x="249.0" y="-10.0"/>
      <point x="50.0" y="193.0"/>
      <point x="50.0" y="350.0" type="qcurve" smooth="yes"/>
      <point x="50.0" y="505.0"/>
      <point x="243.0" y="705.0"/>
      <point x="393.0" y="705.0" type="qcurve" smooth="yes"/>
      <point x="463.0" y="705.0"/>
      <point x="605.0" y="637.0"/>
      <point x="645.0" y="585.0" type="qcurve"/>
      <point x="608.0" y="546.0" type="line"/>
      <point x="575.0" y="594.0"/>
      <point x="454.0" y="655.0"/>
      <point x="393.0" y="655.0" type="qcurve" smooth="yes"/>
      <point x="266.0" y="655.0"/>
      <point x="103.0" y="483.0"/>
      <point x="103.0" y="350.0" type="qcurve" smooth="yes"/>
      <point x="103.0" y="215.0"/>
      <point x="272.0" y="40.0"/>
      <point x="403.0" y="40.0" type="qcurve" smooth="yes"/>
      <point x="463.0" y="40.0"/>
      <point x="577.0" y="91.0"/>
    </contour>
  </outline>
</glyph>
<glyph name="T" format="2">
  <advance width="517"/>
  <unicode hex="0054"/>
  <note>
T
</note>
  <anchor x="258.0" y="0" name="bottom"/>
  <anchor x="259.0" y="350.0" name="center"/>
  <anchor x="259.0" y="700.0" name="top"/>
  <outline>
    <contour>
      <point x="280.0" y="0.0" type="line"/>
      <point x="230.0" y="0.0" type="line"/>
      <point x="230.0" y="676.0" type="line"/>
      <point x="280.0" y="676.0" type="line"/>
    </contour>
    <contour>
      <point x="492.0" y="650.0" type="line"/>
      <point x="25.0" y="650.0" type="line"/>
      <point x="25.0" y="700.0" type="line"/>
      <point x="492.0" y="700.0" type="line"/>
    </contour>
  </outline>
</glyph>
<glyph name="Z" format="2">
  <advance width="637"/>
  <unicode hex="005A"/>
  <note>
Z
</note>
  <anchor x="330.0" y="0" name="bottom"/>
  <anchor x="330.0" y="700.0" name="top"/>
  <outline>
    <contour>
      <point x="86.0" y="700.0" type="line"/>
      <point x="573.0" y="700.0" type="line"/>
      <point x="573.0" y="659.0" type="line"/>
      <point x="110.0" y="26.0" type="line"/>
      <point x="96.0" y="50.0" type="line"/>
      <point x="584.0" y="50.0" type="line"/>
      <point x="584.0" y="0.0" type="line"/>
      <point x="60.0" y="0.0" type="line"/>
      <point x="60.0" y="42.0" type="line"/>
      <point x="525.0" y="674.0" type="line"/>
      <point x="540.0" y="650.0" type="line"/>
      <point x="86.0" y="650.0" type="line"/>
    </contour>
  </outline>
</glyph>
<glyph name="a" format="2">
  <advance width="607"/>
  <unicode hex="0061"/>
  <note>
a
</note>
  <anchor x="304.0" y="0" name="bottom"/>
  <anchor x="524.0" y="10.0" name="ogonek"/>
  <anchor x="300.0" y="520.0" name="top"/>
  <outline>
    <contour>
      <point x="486.0" y="520.0" type="line"/>
      <point x="534.0" y="520.0" type="line"/>
      <point x="534.0" y="0.0" type="line"/>
      <point x="484.0" y="0.0" type="line"/>
      <point x="484.0" y="130.0" type="line"/>
      <point x="501.0" y="149.0" type="line"/>
      <point x="482.0" y="82.0"/>
      <point x="360.0" y="-10.0"/>
      <point x="280.0" y="-10.0" type="qcurve"/>
      <point x="174.0" y="-10.0"/>
      <point x="32.0" y="143.0"/>
      <point x="32.0" y="260.0" type="qcurve"/>
      <point x="32.0" y="378.0"/>
      <point x="177.0" y="531.0"/>
      <point x="280.0" y="531.0" type="qcurve"/>
      <point x="360.0" y="531.0"/>
      <point x="482.0" y="440.0"/>
      <point x="501.0" y="372.0" type="qcurve"/>
      <point x="481.0" y="385.0" type="line"/>
    </contour>
    <contour>
      <point x="85.0" y="261.0" type="qcurve"/>
      <point x="85.0" y="166.0"/>
      <point x="197.0" y="40.0"/>
      <point x="287.0" y="40.0" type="qcurve"/>
      <point x="373.0" y="40.0"/>
      <point x="488.0" y="164.0"/>
      <point x="488.0" y="261.0" type="qcurve"/>
      <point x="488.0" y="357.0"/>
      <point x="374.0" y="481.0"/>
      <point x="287.0" y="481.0" type="qcurve"/>
      <point x="198.0" y="481.0"/>
      <point x="85.0" y="357.0"/>
    </contour>
  </outline>
</glyph>
<glyph name="g" format="2">
  <advance width="611"/>
  <unicode hex="0067"/>
  <note>
g
</note>
  <anchor x="290.0" y="0" name="bottom"/>
  <anchor x="290.0" y="520.0" name="top"/>
  <outline>
    <contour>
      <point x="99.0" y="-167.0" type="qcurve"/>
      <point x="122.0" y="-120.0" type="line"/>
      <point x="152.0" y="-145.0"/>
      <point x="239.0" y="-180.0"/>
      <point x="293.0" y="-180.0" type="qcurve"/>
      <point x="383.0" y="-180.0"/>
      <point x="488.0" y="-70.0"/>
      <point x="488.0" y="38.0" type="qcurve"/>
      <point x="488.0" y="136.0" type="line"/>
      <point x="502.0" y="149.0" type="line"/>
      <point x="483.0" y="82.0"/>
      <point x="361.0" y="-10.0"/>
      <point x="281.0" y="-10.0" type="qcurve"/>
      <point x="175.0" y="-10.0"/>
      <point x="33.0" y="143.0"/>
      <point x="33.0" y="260.0" type="qcurve"/>
      <point x="33.0" y="378.0"/>
      <point x="178.0" y="531.0"/>
      <point x="281.0" y="531.0" type="qcurve"/>
      <point x="361.0" y="531.0"/>
      <point x="483.0" y="440.0"/>
      <point x="502.0" y="372.0" type="qcurve"/>
      <point x="483.0" y="385.0" type="line"/>
      <point x="488.0" y="520.0" type="line"/>
      <point x="538.0" y="520.0" type="line"/>
      <point x="538.0" y="32.0" type="line"/>
      <point x="538.0" y="-93.0"/>
      <point x="399.0" y="-230.0"/>
      <point x="290.0" y="-230.0" type="qcurve"/>
      <point x="230.0" y="-230.0"/>
      <point x="134.0" y="-193.0"/>
    </contour>
    <contour>
      <point x="489.0" y="261.0" type="qcurve"/>
      <point x="489.0" y="357.0"/>
      <point x="375.0" y="481.0"/>
      <point x="288.0" y="481.0" type="qcurve"/>
      <point x="199.0" y="481.0"/>
      <point x="86.0" y="357.0"/>
      <point x="86.0" y="261.0" type="qcurve"/>
      <point x="86.0" y="166.0"/>
      <point x="198.0" y="40.0"/>
      <point x="288.0" y="40.0" type="qcurve"/>
      <point x="374.0" y="40.0"/>
      <point x="489.0" y="164.0"/>
    </contour>
  </outline>
</glyph>
<glyph name="copyright" format="2">
  <advance width="786"/>
  <unicode hex="00A9"/>
  <note>
copyright
</note>
  <outline>
    <contour>
      <point x="750.0" y="350.0" type="qcurve" smooth="yes"/>
      <point x="750.0" y="201.0"/>
      <point x="541.0" y="-7.0"/>
      <point x="393.0" y="-7.0" type="qcurve" smooth="yes"/>
      <point x="244.0" y="-7.0"/>
      <point x="36.0" y="201.0"/>
      <point x="36.0" y="350.0" type="qcurve" smooth="yes"/>
      <point x="36.0" y="499.0"/>
      <point x="244.0" y="707.0"/>
      <point x="393.0" y="707.0" type="qcurve" smooth="yes"/>
      <point x="541.0" y="707.0"/>
      <point x="750.0" y="499.0"/>
    </contour>
    <contour>
      <point x="80.0" y="350.0" type="qcurve" smooth="yes"/>
      <point x="80.0" y="219.0"/>
      <point x="262.0" y="37.0"/>
      <point x="393.0" y="37.0" type="qcurve" smooth="yes"/>
      <point x="524.0" y="37.0"/>
      <point x="706.0" y="219.0"/>
      <point x="706.0" y="350.0" type="qcurve" smooth="yes"/>
      <point x="706.0" y="482.0"/>
      <point x="524.0" y="663.0"/>
      <point x="393.0" y="663.0" type="qcurve" smooth="yes"/>
      <point x="262.0" y="663.0"/>
      <point x="80.0" y="482.0"/>
    </contour>
    <contour>
      <point x="411.0" y="142.0" type="qcurve" smooth="yes"/>
      <point x="321.0" y="142.0"/>
      <point x="197.0" y="260.0"/>
      <point x="197.0" y="350.0" type="qcurve" smooth="yes"/>
      <point x="197.0" y="436.0"/>
      <point x="321.0" y="557.0"/>
      <point x="411.0" y="557.0" type="qcurve" smooth="yes"/>
      <point x="445.0" y="557.0"/>
      <point x="511.0" y="534.0"/>
      <point x="540.0" y="512.0" type="qcurve"/>
      <point x="521.0" y="475.0" type="line"/>
      <point x="505.0" y="489.0"/>
      <point x="446.0" y="514.0"/>
      <point x="411.0" y="514.0" type="qcurve" smooth="yes"/>
      <point x="339.0" y="514.0"/>
      <point x="245.0" y="420.0"/>
      <point x="245.0" y="350.0" type="qcurve" smooth="yes"/>
      <point x="245.0" y="277.0"/>
      <point x="339.0" y="185.0"/>
      <point x="411.0" y="185.0" type="qcurve" smooth="yes"/>
      <point x="445.0" y="185.0"/>
      <point x="501.0" y="202.0"/>
      <point x="527.0" y="220.0" type="qcurve"/>
      <point x="544.0" y="185.0" type="line"/>
      <point x="514.0" y="164.0"/>
      <point x="446.0" y="142.0"/>
    </contour>
  </outline>
</glyph>
<glyph name="plusminus" format="2">
  <advance width="582"/>
  <unicode hex="00B1"/>
  <note>
plusminus
</note>
  <outline>
    <contour>
      <point x="530.0" y="326.0" type="line"/>
      <point x="52.0" y="326.0" type="line"/>
      <point x="52.0" y="374.0" type="line"/>
      <point x="530.0" y="374.0" type="line"/>
    </contour>
    <contour>
      <point x="316.0" y="167.0" type="line"/>
      <point x="266.0" y="167.0" type="line"/>
      <point x="266.0" y="525.0" type="line"/>
      <point x="316.0" y="525.0" type="line"/>
    </contour>
    <contour>
      <point x="530.0" y="42.0" type="line"/>
      <point x="52.0" y="42.0" type="line"/>
      <point x="52.0" y="90.0" type="line"/>
      <point x="530.0" y="90.0" type="line"/>
    </contour>
  </outline>
</glyph>
<glyph name="Oslash" format="2">
  <advance width="787"/>
  <unicode hex="00D8"/>
  <note>
Oslash
</note>
  <outline>
    <contour>
      <point x="113.0" y="-33.0" type="line"/>
      <point x="75.0" y="-1.0" type="line"/>
      <point x="669.0" y="725.0" type="line"/>
      <point x="707.0" y="694.0" type="line"/>
    </contour>
    <component base="O"/>
  </outline>
</glyph>
<glyph name="Eogonek" format="2">
  <advance width="614"/>
  <unicode hex="0118"/>
  <note>
Eogonek
</note>
  <anchor x="296.0" y="0" name="bottom"/>
  <anchor x="293.0" y="700.0" name="top"/>
  <anchor x="20.0" y="700.0" name="topleft"/>
  <anchor x="475.0" y="10.0" name="ogonek"/>
  <outline>
    <contour>
      <point x="426.0" y="-217.0" type="qcurve" smooth="yes"/>
      <point x="372.0" y="-217.0"/>
      <point x="306.0" y="-159.0"/>
      <point x="306.0" y="-110.0" type="qcurve" smooth="yes"/>
      <point x="306.0" y="-74.0"/>
      <point x="366.0" y="-2.0"/>
      <point x="452.0" y="12.0" type="qcurve"/>
      <point x="511.0" y="0.0" type="line"/>
      <point x="420.0" y="-17.0"/>
      <point x="354.0" y="-77.0"/>
      <point x="354.0" y="-112.0" type="qcurve" smooth="yes"/>
      <point x="354.0" y="-138.0"/>
      <point x="396.0" y="-172.0"/>
      <point x="429.0" y="-172.0" type="qcurve" smooth="yes"/>
      <point x="455.0" y="-172.0"/>
      <point x="503.0" y="-154.0"/>
      <point x="517.0" y="-142.0" type="qcurve"/>
      <point x="539.0" y="-176.0" type="line"/>
      <point x="520.0" y="-193.0"/>
      <point x="462.0" y="-217.0"/>
    </contour>
    <component base="E"/>
  </outline>
</glyph>
<glyph name="eogonek" format="2">
  <advance width="540"/>
  <unicode hex="0119"/>
  <note>
eogonek
</note>
  <outline>
    <contour>
      <point x="290.0" y="-10.0" type="qcurve"/>
      <point x="177.0" y="-10.0"/>
      <point x="32.0" y="140.0"/>
      <point x="32.0" y="261.0" type="qcurve"/>
      <point x="32.0" y="378.0"/>
      <point x="172.0" y="531.0"/>
      <point x="283.0" y="531.0" type="qcurve"/>
      <point x="392.0" y="531.0"/>
      <point x="512.0" y="392.0"/>
      <point x="512.0" y="282.0" type="qcurve"/>
      <point x="511.0" y="255.0" type="line"/>
      <point x="65.0" y="255.0" type="line"/>
      <point x="65.0" y="301.0" type="line"/>
      <point x="492.0" y="301.0" type="line"/>
      <point x="462.0" y="271.0" type="line"/>
      <point x="462.0" y="307.0" type="line"/>
      <point x="463.0" y="367.0"/>
      <point x="374.0" y="481.0"/>
      <point x="282.0" y="481.0" type="qcurve"/>
      <point x="205.0" y="481.0"/>
      <point x="89.86747860897674" y="380.73997378082794"/>
      <point x="85.0" y="261.0" type="qcurve"/>
      <point x="88.08364361104591" y="160.26764203916701"/>
      <point x="198.0" y="40.0"/>
      <point x="299.0" y="40.0" type="qcurve"/>
      <point x="336.0" y="40.0"/>
      <point x="414.0" y="64.0"/>
      <point x="463.0" y="104.0" type="qcurve"/>
      <point x="489.0" y="67.0" type="line"/>
      <point x="476.0" y="57.0"/>
      <point x="451.0" y="39.0"/>
      <point x="436.0" y="29.0" type="qcurve" smooth="yes"/>
      <point x="384.0" y="-6.0"/>
      <point x="308.0" y="-65.0"/>
      <point x="308.0" y="-106.0" type="qcurve" smooth="yes"/>
      <point x="308.0" y="-138.0"/>
      <point x="351.0" y="-178.0"/>
      <point x="384.0" y="-178.0" type="qcurve" smooth="yes"/>
      <point x="410.0" y="-178.0"/>
      <point x="458.0" y="-158.0"/>
      <point x="472.0" y="-146.0" type="qcurve"/>
      <point x="494.0" y="-180.0" type="line"/>
      <point x="475.0" y="-197.0"/>
      <point x="416.0" y="-221.0"/>
      <point x="380.0" y="-221.0" type="qcurve" smooth="yes"/>
      <point x="327.0" y="-221.0"/>
      <point x="263.0" y="-161.0"/>
      <point x="263.0" y="-111.0" type="qcurve" smooth="yes"/>
      <point x="263.0" y="-81.0"/>
      <point x="300.0" y="-22.0"/>
      <point x="354.0" y="8.0" type="qcurve"/>
      <point x="363.0" y="-4.0" type="line"/>
      <point x="323.0" y="-8.0"/>
      <point x="301.0" y="-10.0"/>
    </contour>
  </outline>
</glyph>
<glyph name="iogonek" format="2">
  <advance width="200"/>
  <unicode hex="012F"/>
  <note>
iogonek
</note>
  <outline>
    <contour>
      <point x="103.0" y="48.0" type="qcurve"/>
      <point x="75.0" y="1.0" type="line"/>
      <point x="75.0" y="520.0" type="line"/>
      <point x="125.0" y="520.0" type="line"/>
      <point x="125.0" y="0.0" type="line"/>
      <point x="85.0" y="-19.0"/>
      <point x="35.0" y="-63.0"/>
      <point x="35.0" y="-90.0" type="qcurve" smooth="yes"/>
      <point x="35.0" y="-114.0"/>
      <point x="65.0" y="-144.0"/>
      <point x="89.0" y="-144.0" type="qcurve" smooth="yes"/>
      <point x="105.0" y="-144.0"/>
      <point x="130.0" y="-130.0"/>
      <point x="143.0" y="-111.0" type="qcurve"/>
      <point x="182.0" y="-139.0" type="line"/>
      <point x="169.0" y="-166.0"/>
      <point x="117.0" y="-195.0"/>
      <point x="85.0" y="-195.0" type="qcurve" smooth="yes"/>
      <point x="39.0" y="-195.0"/>
      <point x="-16.0" y="-141.62921348314606"/>
      <point x="-16.0" y="-100.0" type="qcurve" smooth="yes"/>
      <point x="-16.0" y="-53.87012987012987"/>
      <point x="35.77102120479819" y="4.49889607369294"/>
    </contour>
    <component base="dotaccentcomb" xOffset="-5" yOffset="14"/>
  </outline>
</glyph>
<glyph name="kgreenlandic" format="2">
  <advance width="556"/>
  <unicode hex="0138"/>
  <anchor x="263.0" y="0" name="bottom"/>
  <anchor x="255.0" y="520.0" name="top"/>
  <outline>
    <contour>
      <point x="125.0" y="0.0" type="line"/>
      <point x="75.0" y="0.0" type="line"/>
      <point x="75.0" y="520.0" type="line"/>
      <point x="125.0" y="520.0" type="line"/>
    </contour>
    <contour>
      <point x="400.0" y="520.0" type="line"/>
      <point x="466.0" y="520.0" type="line"/>
      <point x="217.0" y="279.0" type="line"/>
      <point x="107.0" y="172.0" type="line"/>
      <point x="107.0" y="235.0" type="line"/>
    </contour>
    <contour>
      <point x="494.0" y="0.0" type="line"/>
      <point x="428.0" y="0.0" type="line"/>
      <point x="188.0" y="278.0" type="line"/>
      <point x="222.0" y="315.0" type="line"/>
    </contour>
  </outline>
</glyph>
<glyph name="Eng" format="2">
  <advance width="781"/>
  <unicode hex="014A"/>
  <note>
Eng
</note>
  <outline>
    <contour>
      <point x="623.0" y="33.0" type="line"/>
      <point x="641.0" y="-21.0" type="line"/>
      <point x="134.0" y="645.0" type="line"/>
      <point x="151.0" y="651.0" type="line"/>
      <point x="153.0" y="596.0"/>
      <point x="155.0" y="483.0"/>
      <point x="156.0" y="439.0" type="qcurve" smooth="yes"/>
      <point x="157.0" y="403.0"/>
      <point x="158.0" y="352.0"/>
      <point x="158.0" y="344.0" type="qcurve"/>
      <point x="158.0" y="0.0" type="line"/>
      <point x="108.0" y="0.0" type="line"/>
      <point x="108.0" y="700.0" type="line"/>
      <point x="154.0" y="700.0" type="line"/>
      <point x="644.0" y="58.0" type="line"/>
      <point x="627.0" y="52.0" type="line"/>
      <point x="624.0" y="139.0"/>
      <point x="624.0" y="324.0"/>
      <point x="623.0" y="417.0" type="qcurve"/>
      <point x="623.0" y="700.0" type="line"/>
      <point x="673.0" y="700.0" type="line"/>
      <point x="673.0" y="3.0" type="line"/>
      <point x="673.0" y="-48.0" type="line" smooth="yes"/>
      <point x="673.0" y="-114.0"/>
      <point x="594.0" y="-195.0"/>
      <point x="529.0" y="-195.0" type="qcurve"/>
      <point x="508.0" y="-152.0" type="line"/>
      <point x="572.0" y="-152.0"/>
      <point x="623.0" y="-90.0"/>
      <point x="623.0" y="-28.0" type="qcurve"/>
    </contour>
  </outline>
</glyph>
<glyph name="Uogonek" format="2">
  <advance width="753"/>
  <unicode hex="0172"/>
  <anchor x="354.0" y="0" name="bottom"/>
  <anchor x="637.0" y="10.0" name="ogonek"/>
  <anchor x="354.0" y="700.0" name="top"/>
  <anchor x="688.0" y="700.0" name="topright"/>
  <outline>
    <contour>
      <point x="374.0" y="-6.0" type="qcurve" smooth="yes"/>
      <point x="258.0" y="-6.0"/>
      <point x="108.0" y="149.0"/>
      <point x="108.0" y="269.0" type="qcurve"/>
      <point x="108.0" y="701.0" type="line"/>
      <point x="158.0" y="701.0" type="line"/>
      <point x="158.0" y="278.0" type="line" smooth="yes"/>
      <point x="158.0" y="176.0"/>
      <point x="280.0" y="44.0"/>
      <point x="374.0" y="44.0" type="qcurve" smooth="yes"/>
      <point x="471.0" y="44.0"/>
      <point x="596.0" y="176.0"/>
      <point x="596.0" y="278.0" type="qcurve"/>
      <point x="596.0" y="701.0" type="line"/>
      <point x="645.0" y="701.0" type="line"/>
      <point x="645.0" y="269.0" type="line" smooth="yes"/>
      <point x="645.0" y="182.0"/>
      <point x="563.0" y="50.0"/>
      <point x="494.0" y="19.0" type="qcurve" smooth="yes"/>
      <point x="438.68952816989673" y="-6.679861921119386"/>
      <point x="368.0" y="-54.445378151260506"/>
      <point x="368.0" y="-96.0" type="qcurve" smooth="yes"/>
      <point x="368.0" y="-120.0"/>
      <point x="397.0" y="-150.0"/>
      <point x="421.0" y="-150.0" type="qcurve" smooth="yes"/>
      <point x="437.0" y="-150.0"/>
      <point x="462.0" y="-136.0"/>
      <point x="475.0" y="-117.0" type="qcurve"/>
      <point x="514.0" y="-145.0" type="line"/>
      <point x="505.0" y="-168.0"/>
      <point x="449.0" y="-201.0"/>
      <point x="419.0" y="-201.0" type="qcurve" smooth="yes"/>
      <point x="373.0" y="-201.0"/>
      <point x="316.0" y="-149.0"/>
      <point x="316.0" y="-107.0" type="qcurve" smooth="yes"/>
      <point x="316.0" y="-76.07563025210084"/>
      <point x="352.2693357103807" y="-20.876020069824776"/>
      <point x="415.0" y="8.0" type="qcurve"/>
      <point x="418.0" y="-6.0" type="line"/>
      <point x="385.0" y="-6.0"/>
      <point x="378.0" y="-6.0"/>
    </contour>
  </outline>
</glyph>
<glyph name="nhookleft" format="2">
  <advance width="610"/>
  <unicode hex="0272"/>
  <anchor x="318.0" y="0" name="bottom"/>
  <anchor x="318.0" y="510.0" name="top"/>
  <outline>
    <contour>
      <point x="88.0" y="0.0" type="qcurve"/>
      <point x="138.0" y="50.0" type="line"/>
      <point x="138.0" y="-52.0" type="line" smooth="yes"/>
      <point x="138.0" y="-116.0"/>
      <point x="69.0" y="-195.0"/>
      <point x="2.0" y="-195.0" type="qcurve"/>
      <point x="-19.0" y="-152.0" type="line"/>
      <point x="50.0" y="-152.0"/>
      <point x="88.0" y="-83.88059701492537"/>
    </contour>
    <component base="n" xOffset="15"/>
  </outline>
</glyph>
<glyph name="circumflex" format="2">
  <advance width="368"/>
  <unicode hex="02C6"/>
  <outline>
    <contour>
      <point x="309.0" y="612.0" type="line"/>
      <point x="166.0" y="707.0" type="line"/>
      <point x="196.0" y="707.0" type="line"/>
      <point x="53.0" y="612.0" type="line"/>
      <point x="33.0" y="627.0" type="line"/>
      <point x="148.0" y="740.0" type="line"/>
      <point x="214.0" y="740.0" type="line"/>
      <point x="329.0" y="627.0" type="line"/>
    </contour>
  </outline>
</glyph>
<glyph name="breve" format="2">
  <advance width="364"/>
  <unicode hex="02D8"/>
  <anchor x="182.0" y="520.0" name="_top"/>
  <outline>
    <contour>
      <point x="182.0" y="600.0" type="qcurve" smooth="yes"/>
      <point x="128.0" y="600.0"/>
      <point x="51.65491696014149" y="669.782929039269"/>
      <point x="40.0" y="730.0" type="qcurve"/>
      <point x="76.0" y="737.0" type="line"/>
      <point x="92.40011328047737" y="691.6585103422096"/>
      <point x="150.0" y="641.0"/>
      <point x="182.0" y="641.0" type="qcurve" smooth="yes"/>
      <point x="214.0" y="641.0"/>
      <point x="272.5722979538117" y="691.6811252393218"/>
      <point x="288.0" y="737.0" type="qcurve"/>
      <point x="324.0" y="730.0" type="line"/>
      <point x="312.34508303985854" y="669.782929039269"/>
      <point x="236.0" y="600.0"/>
    </contour>
  </outline>
</glyph>
<glyph name="ogonek" format="2">
  <advance width="295"/>
  <unicode hex="02DB"/>
  <outline>
    <contour>
      <point x="161.0" y="-195.0" type="qcurve" smooth="yes"/>
      <point x="115.0" y="-195.0"/>
      <point x="60.0" y="-145.0"/>
      <point x="60.0" y="-106.0" type="qcurve" smooth="yes"/>
      <point x="60.0" y="-52.0"/>
      <point x="139.4036395577639" y="20.69200050193433"/>
      <point x="205.0" y="31.0" type="qcurve"/>
      <point x="229.0" y="28.0" type="line"/>
      <point x="229.0" y="0.0" type="line"/>
      <point x="176.40228037424208" y="-5.5366020658692525"/>
      <point x="111.0" y="-58.0"/>
      <point x="111.0" y="-90.0" type="qcurve" smooth="yes"/>
      <point x="111.0" y="-114.0"/>
      <point x="141.0" y="-144.0"/>
      <point x="165.0" y="-144.0" type="qcurve" smooth="yes"/>
      <point x="181.0" y="-144.0"/>
      <point x="206.0" y="-130.0"/>
      <point x="219.0" y="-111.0" type="qcurve"/>
      <point x="258.0" y="-139.0" type="line"/>
      <point x="245.0" y="-166.0"/>
      <point x="193.0" y="-195.0"/>
    </contour>
  </outline>
</glyph>
<glyph name="tildecomb" format="2">
  <advance width="419"/>
  <unicode hex="0303"/>
  <outline>
    <contour>
      <point x="101.0" y="628.0" type="qcurve"/>
      <point x="60.0" y="634.0" type="line"/>
      <point x="65.0" y="674.0"/>
      <point x="118.0" y="726.0"/>
      <point x="158.0" y="726.0" type="qcurve" smooth="yes"/>
      <point x="177.0" y="726.0"/>
      <point x="211.0" y="710.0"/>
      <point x="233.0" y="687.0" type="qcurve" smooth="yes"/>
      <point x="249.0" y="671.0"/>
      <point x="267.0" y="664.0"/>
      <point x="276.0" y="664.0" type="qcurve"/>
      <point x="292.0" y="664.0"/>
      <point x="314.0" y="692.0"/>
      <point x="316.0" y="712.0" type="qcurve"/>
      <point x="359.0" y="702.0" type="line"/>
      <point x="355.0" y="670.0"/>
      <point x="310.0" y="624.0"/>
      <point x="274.0" y="624.0" type="qcurve"/>
      <point x="253.0" y="624.0"/>
      <point x="217.0" y="643.0"/>
      <point x="193.0" y="667.0" type="qcurve" smooth="yes"/>
      <point x="178.0" y="682.0"/>
      <point x="160.0" y="687.0"/>
      <point x="153.0" y="687.0" type="qcurve" smooth="yes"/>
      <point x="132.0" y="687.0"/>
      <point x="105.0" y="657.0"/>
    </contour>
  </outline>
</glyph>
<glyph name="dotaccentcomb" format="2">
  <advance width="227"/>
  <unicode hex="0307"/>
  <outline>
    <contour>
      <point x="151.0" y="674.0" type="qcurve" smooth="yes"/>
      <point x="151.0" y="654.0"/>
      <point x="127.0" y="629.0"/>
      <point x="105.0" y="629.0" type="qcurve" smooth="yes"/>
      <point x="83.0" y="629.0"/>
      <point x="59.0" y="653.0"/>
      <point x="59.0" y="674.0" type="qcurve" smooth="yes"/>
      <point x="59.0" y="694.0"/>
      <point x="83.0" y="719.0"/>
      <point x="105.0" y="719.0" type="qcurve" smooth="yes"/>
      <point x="127.0" y="719.0"/>
      <point x="151.0" y="695.0"/>
    </contour>
  </outline>
</glyph>
<glyph name="caroncomb" format="2">
  <advance width="362"/>
  <unicode hex="030C"/>
  <outline>
    <contour>
      <point x="196.0" y="643.0" type="line"/>
      <point x="166.0" y="643.0" type="line"/>
      <point x="309.0" y="738.0" type="line"/>
      <point x="329.0" y="723.0" type="line"/>
      <point x="214.0" y="610.0" type="line"/>
      <point x="148.0" y="610.0" type="line"/>
      <point x="33.0" y="723.0" type="line"/>
      <point x="53.0" y="738.0" type="line"/>
    </contour>
  </outline>
</glyph>
<glyph name="commaaccentcomb" format="2">
  <unicode hex="0326"/>
  <anchor x="124.0" y="0" name="_bottom"/>
  <anchor x="123.0" y="-276.0" name="bottom"/>
  <outline>
    <contour>
      <point x="83.0" y="-203.0" type="qcurve"/>
      <point x="65.0" y="-182.0" type="line"/>
      <point x="91.0" y="-166.0"/>
      <point x="114.0" y="-135.0"/>
      <point x="114.0" y="-118.0" type="qcurve" smooth="yes"/>
      <point x="114.0" y="-111.0"/>
      <point x="107.0" y="-97.0"/>
      <point x="90.0" y="-90.0" type="qcurve" smooth="yes"/>
      <point x="80.0" y="-86.0"/>
      <point x="68.0" y="-68.0"/>
      <point x="68.0" y="-57.0" type="qcurve"/>
      <point x="68.0" y="-43.0"/>
      <point x="89.0" y="-24.0"/>
      <point x="104.0" y="-24.0" type="qcurve"/>
      <point x="132.0" y="-24.0"/>
      <point x="163.0" y="-57.0"/>
      <point x="163.0" y="-85.0" type="qcurve" smooth="yes"/>
      <point x="163.0" y="-123.0"/>
      <point x="126.0" y="-178.0"/>
    </contour>
  </outline>
</glyph>
<glyph name="daggerdbl" format="2">
  <advance width="424"/>
  <unicode hex="2021"/>
  <note>
daggerdbl
</note>
  <outline>
    <contour>
      <point x="189.0" y="196.0" type="line"/>
      <point x="189.0" y="721.0" type="line"/>
      <point x="237.0" y="721.0" type="line"/>
      <point x="237.0" y="196.0" type="line"/>
    </contour>
    <contour>
      <point x="368.0" y="539.0" type="line"/>
      <point x="56.0" y="539.0" type="line"/>
      <point x="56.0" y="583.0" type="line"/>
      <point x="368.0" y="583.0" type="line"/>
    </contour>
    <contour>
      <point x="368.0" y="383.0" type="line"/>
      <point x="56.0" y="383.0" type="line"/>
      <point x="56.0" y="427.0" type="line"/>
      <point x="368.0" y="427.0" type="line"/>
    </contour>
  </outline>
</glyph>
<glyph name="peseta" format="2">
  <advance width="791"/>
  <unicode hex="20A7"/>
  <anchor x="401.0" y="0" name="bottom"/>
  <anchor x="401.0" y="700.0" name="top"/>
  <outline>
    <contour>
      <point x="719.0" y="456.0" type="line"/>
      <point x="92.0" y="456.0" type="line"/>
      <point x="92.0" y="505.0" type="line"/>
      <point x="719.0" y="505.0" type="line"/>
    </contour>
    <component base="P" xOffset="80"/>
  </outline>
</glyph>
<glyph name="euro" format="2">
  <advance width="646"/>
  <unicode hex="20AC"/>
  <note>
Euro
</note>
  <outline>
    <contour>
      <point x="417.0" y="244.0" type="line"/>
      <point x="15.0" y="244.0" type="line"/>
      <point x="15.0" y="292.0" type="line"/>
      <point x="417.0" y="292.0" type="line"/>
    </contour>
    <contour>
      <point x="417.0" y="389.0" type="line"/>
      <point x="15.0" y="389.0" type="line"/>
      <point x="15.0" y="437.0" type="line"/>
      <point x="417.0" y="437.0" type="line"/>
    </contour>
    <contour>
      <point x="423.0" y="-10.0" type="qcurve"/>
      <point x="278.1810089020771" y="-10.0"/>
      <point x="91.0" y="191.0"/>
      <point x="91.0" y="347.0" type="qcurve"/>
      <point x="91.0" y="503.0"/>
      <point x="281.1865889212828" y="705.0"/>
      <point x="429.0" y="705.0" type="qcurve"/>
      <point x="473.37820512820514" y="705.0"/>
      <point x="554.2128307637399" y="682.5172826409708"/>
      <point x="590.0" y="659.0" type="qcurve"/>
      <point x="564.0" y="615.0" type="line"/>
      <point x="534.1659085478227" y="632.4889501616211"/>
      <point x="466.38461538461536" y="655.0"/>
      <point x="429.0" y="655.0" type="qcurve"/>
      <point x="304.1896551724138" y="655.0"/>
      <point x="144.0" y="481.0"/>
      <point x="144.0" y="347.0" type="qcurve"/>
      <point x="144.0" y="213.0"/>
      <point x="303.6275862068966" y="40.0"/>
      <point x="428.0" y="40.0" type="qcurve"/>
      <point x="466.64444444444445" y="40.0"/>
      <point x="539.0" y="64.0"/>
      <point x="569.0" y="83.0" type="qcurve"/>
      <point x="594.0" y="41.0" type="line"/>
      <point x="556.3635003003694" y="14.863541875256612"/>
      <point x="468.3253012048193" y="-10.0"/>
    </contour>
  </outline>
</glyph>
<glyph name="peso" format="2">
  <advance width="775"/>
  <unicode hex="20B1"/>
  <anchor x="401.0" y="0" name="bottom"/>
  <anchor x="401.0" y="700.0" name="top"/>
  <outline>
    <contour>
      <point x="203.0" y="407.0" type="line"/>
      <point x="90.0" y="407.0" type="line"/>
      <point x="90.0" y="455.0" type="line"/>
      <point x="206.0" y="455.0" type="line"/>
      <point x="229.0" y="455.0" type="line"/>
      <point x="593.0" y="455.0" type="line"/>
      <point x="628.0" y="455.0" type="line"/>
      <point x="705.0" y="455.0" type="line"/>
      <point x="705.0" y="407.0" type="line"/>
      <point x="613.0" y="407.0" type="line"/>
      <point x="581.0" y="407.0" type="line"/>
      <point x="227.0" y="407.0" type="line"/>
    </contour>
    <contour>
      <point x="204.0" y="528.0" type="line"/>
      <point x="90.0" y="528.0" type="line"/>
      <point x="90.0" y="576.0" type="line"/>
      <point x="209.0" y="576.0" type="line"/>
      <point x="231.0" y="576.0" type="line"/>
      <point x="587.0" y="576.0" type="line"/>
      <point x="624.0" y="576.0" type="line"/>
      <point x="705.0" y="576.0" type="line"/>
      <point x="705.0" y="528.0" type="line"/>
      <point x="629.0" y="528.0" type="line"/>
      <point x="593.0" y="528.0" type="line"/>
      <point x="230.0" y="528.0" type="line"/>
    </contour>
    <component base="P" xOffset="80"/>
  </outline>
</glyph>
<glyph name="notequal" format="2">
  <advance width="566"/>
  <unicode hex="2260"/>
  <note>
notequal
</note>
  <outline>
    <contour>
      <point x="119.0" y="43.0" type="line"/>
      <point x="381.0" y="525.0" type="line"/>
      <point x="434.0" y="525.0" type="line"/>
      <point x="174.0" y="43.0" type="line"/>
    </contour>
    <contour>
      <point x="506.0" y="345.0" type="line"/>
      <point x="60.0" y="345.0" type="line"/>
      <point x="60.0" y="393.0" type="line"/>
      <point x="506.0" y="393.0" type="line"/>
    </contour>
    <contour>
      <point x="60.0" y="175.0" type="line"/>
      <point x="60.0" y="223.0" type="line"/>
      <point x="506.0" y="223.0" type="line"/>
      <point x="506.0" y="175.0" type="line"/>
    </contour>
  </outline>
</glyph>
<glyph name="aogonek.ss01" format="2">
  <advance width="538"/>
  <note>
aogonek
</note>
  <outline>
    <contour>
      <point x="216.0" y="-10.0" type="qcurve"/>
      <point x="140.0" y="-10.0"/>
      <point x="38.0" y="77.0"/>
      <point x="38.0" y="149.0" type="qcurve"/>
      <point x="38.0" y="233.0"/>
      <point x="157.0" y="319.0"/>
      <point x="274.0" y="319.0" type="qcurve"/>
      <point x="439.0" y="319.0" type="line"/>
      <point x="430.0" y="270.0" type="line"/>
      <point x="261.0" y="270.0" type="line" smooth="yes"/>
      <point x="179.0" y="270.0"/>
      <point x="91.0" y="208.0"/>
      <point x="91.0" y="151.0" type="qcurve"/>
      <point x="91.0" y="101.0"/>
      <point x="164.0" y="40.0"/>
      <point x="220.0" y="40.0" type="qcurve"/>
      <point x="287.0" y="40.0"/>
      <point x="398.0" y="109.0"/>
      <point x="426.0" y="164.0" type="qcurve"/>
      <point x="447.0" y="130.0" type="line"/>
      <point x="411.0" y="67.0"/>
      <point x="285.0" y="-10.0"/>
    </contour>
    <contour>
      <point x="398.0" y="-195.0" type="qcurve" smooth="yes"/>
      <point x="352.0" y="-195.0"/>
      <point x="297.0" y="-145.0"/>
      <point x="297.0" y="-106.0" type="qcurve" smooth="yes"/>
      <point x="297.0" y="-57.0"/>
      <point x="361.0" y="12.0"/>
      <point x="445.0" y="33.0" type="qcurve"/>
      <point x="439.0" y="1.0" type="line"/>
      <point x="416.0" y="1.0" type="line"/>
      <point x="416.0" y="364.0" type="line"/>
      <point x="416.0" y="416.0"/>
      <point x="345.0" y="481.0"/>
      <point x="268.0" y="481.0" type="qcurve"/>
      <point x="214.0" y="481.0"/>
      <point x="129.0" y="437.0"/>
      <point x="92.0" y="395.0" type="qcurve"/>
      <point x="56.0" y="430.0" type="line"/>
      <point x="103.0" y="481.0"/>
      <point x="208.0" y="531.0"/>
      <point x="270.0" y="531.0" type="qcurve"/>
      <point x="360.0" y="531.0"/>
      <point x="466.0" y="444.0"/>
      <point x="466.0" y="364.0" type="qcurve"/>
      <point x="466.0" y="0.0" type="line"/>
      <point x="413.0" y="-6.0"/>
      <point x="348.0" y="-58.0"/>
      <point x="348.0" y="-90.0" type="qcurve" smooth="yes"/>
      <point x="348.0" y="-114.0"/>
      <point x="378.0" y="-144.0"/>
      <point x="402.0" y="-144.0" type="qcurve" smooth="yes"/>
      <point x="418.0" y="-144.0"/>
      <point x="443.0" y="-130.0"/>
      <point x="456.0" y="-111.0" type="qcurve"/>
      <point x="495.0" y="-139.0" type="line"/>
      <point x="482.0" y="-166.0"/>
      <point x="430.0" y="-195.0"/>
    </contour>
  </outline>
</glyph>
<glyph name="circumflexcomb.case" format="2">
  <anchor x="181.0" y="520.0" name="_top"/>
  <anchor x="181.0" y="740.0" name="top"/>
  <outline>
    <contour>
      <point x="311.0" y="612.0" type="line"/>
      <point x="166.0" y="705.0" type="line"/>
      <point x="196.0" y="705.0" type="line"/>
      <point x="51.0" y="612.0" type="line"/>
      <point x="33.0" y="625.0" type="line"/>
      <point x="148.0" y="738.0" type="line"/>
      <point x="214.0" y="738.0" type="line"/>
      <point x="329.0" y="625.0" type="line"/>
    </contour>
  </outline>
</glyph>
<glyph name="commaaccentcomb.case" format="2">
  <anchor x="144.0" y="0" name="_bottom"/>
  <outline>
    <contour>
      <point x="93.0" y="-204.0" type="qcurve"/>
      <point x="75.0" y="-183.0" type="line"/>
      <point x="100.84867576875925" y="-167.3341358977217"/>
      <point x="124.0" y="-135.69565217391303"/>
      <point x="124.0" y="-119.0" type="qcurve" smooth="yes"/>
      <point x="124.0" y="-112.0"/>
      <point x="117.0" y="-98.0"/>
      <point x="100.0" y="-91.0" type="qcurve" smooth="yes"/>
      <point x="89.7352087464362" y="-86.89408349857447"/>
      <point x="78.0" y="-69.0"/>
      <point x="78.0" y="-58.0" type="qcurve"/>
      <point x="78.0" y="-44.0"/>
      <point x="99.0" y="-25.0"/>
      <point x="114.0" y="-25.0" type="qcurve"/>
      <point x="142.0" y="-25.0"/>
      <point x="173.0" y="-57.647887323943664"/>
      <point x="173.0" y="-86.0" type="qcurve" smooth="yes"/>
      <point x="173.0" y="-124.08860759493672"/>
      <point x="135.73814382309882" y="-179.21187658260268"/>
    </contour>
  </outline>
</glyph>
<glyph name="four.dnom" format="2">
  <advance width="390"/>
  <outline>
    <contour>
      <point x="279.0" y="0.0" type="line"/>
      <point x="239.0" y="0.0" type="line"/>
      <point x="239.0" y="326.0" type="line"/>
      <point x="254.0" y="317.0" type="line"/>
      <point x="82.0" y="116.0" type="line"/>
      <point x="78.0" y="121.0" type="line"/>
      <point x="340.0" y="121.0" type="line"/>
      <point x="340.0" y="83.0" type="line"/>
      <point x="62.0" y="83.0" type="line"/>
      <point x="50.0" y="132.0" type="line"/>
      <point x="239.0" y="356.0" type="line"/>
      <point x="279.0" y="356.0" type="line"/>
    </contour>
  </outline>
</glyph>
<glyph name="hookabovecomb.case" format="2">
  <anchor x="155.0" y="520.0" name="_top"/>
  <anchor x="155.0" y="740.0" name="top"/>
  <outline>
    <contour>
      <point x="81.0" y="680.0" type="qcurve"/>
      <point x="60.0" y="710.0" type="line"/>
      <point x="86.0" y="735.0"/>
      <point x="126.0" y="751.0"/>
      <point x="150.0" y="751.0" type="qcurve" smooth="yes"/>
      <point x="188.0" y="751.0"/>
      <point x="227.0" y="712.0"/>
      <point x="227.0" y="682.0" type="qcurve" smooth="yes"/>
      <point x="227.0" y="668.0"/>
      <point x="219.1930926180774" y="644.2775706384863"/>
      <point x="203.0" y="621.0" type="qcurve" smooth="yes"/>
      <point x="196.0" y="611.0"/>
      <point x="184.0" y="590.0"/>
      <point x="183.0" y="578.0" type="qcurve"/>
      <point x="145.0" y="578.0" type="line"/>
      <point x="145.0" y="591.0"/>
      <point x="152.0" y="615.0"/>
      <point x="161.0" y="627.0" type="qcurve" smooth="yes"/>
      <point x="176.0" y="647.0"/>
      <point x="186.0" y="666.0"/>
      <point x="186.0" y="676.0" type="qcurve" smooth="yes"/>
      <point x="186.0" y="695.0"/>
      <point x="165.0" y="712.0"/>
      <point x="147.0" y="712.0" type="qcurve" smooth="yes"/>
      <point x="132.0" y="712.0"/>
      <point x="102.0" y="701.0"/>
    </contour>
  </outline>
</glyph>
<glyph name="horncomb.case" format="2">
  <anchor x="0" y="510.0" name="_topright"/>
  <anchor x="0" y="510.0" name="topright"/>
  <outline>
    <contour>
      <point x="74.0" y="472.0" type="qcurve"/>
      <point x="74.0" y="520.0" type="line"/>
      <point x="136.0" y="520.0"/>
      <point x="197.0" y="572.0"/>
      <point x="197.0" y="624.0" type="qcurve"/>
      <point x="245.0" y="624.0" type="line"/>
      <point x="245.0" y="554.0"/>
      <point x="155.0" y="472.0"/>
    </contour>
  </outline>
</glyph>
<glyph name="macronbelowcomb.case" format="2">
  <anchor x="198.0" y="0" name="_bottom"/>
  <anchor x="198.0" y="-230.0" name="bottom"/>
  <outline>
    <contour>
      <point x="349.0" y="-132.0" type="line"/>
      <point x="75.0" y="-132.0" type="line"/>
      <point x="75.0" y="-107.0" type="line"/>
      <point x="75.0" y="-84.0" type="line"/>
      <point x="349.0" y="-84.0" type="line"/>
      <point x="349.0" y="-111.0" type="line"/>
    </contour>
  </outline>
</glyph>
<glyph name="one.dnom" format="2">
  <advance width="278"/>
  <outline>
    <contour>
      <point x="188.0" y="346.0" type="line"/>
      <point x="188.0" y="0.0" type="line"/>
      <point x="178.0" y="0.0"/>
      <point x="157.0" y="0.0"/>
      <point x="147.0" y="0.0" type="qcurve"/>
      <point x="147.0" y="315.0" type="line"/>
      <point x="159.0" y="294.0" type="line"/>
      <point x="78.0" y="247.0" type="line"/>
      <point x="60.0" y="280.0" type="line"/>
      <point x="172.0" y="346.0" type="line"/>
    </contour>
  </outline>
</glyph>
